<svg xmlns="http://www.w3.org/2000/svg" width="324.0206298828125" height="330.0890808105469" viewBox="-66.66853332519531 -64.35202026367188 324.0206298828125 330.0890808105469"><title>Neo4j Graph Visualization</title><desc>Created using Neo4j (http://www.neo4j.com/)</desc><g class="layer relationships"><g class="relationship" transform="translate(100.6310584714832 236.73707568611715) rotate(267.4625858049716)"><path class="outline" fill="#4C8EDA" stroke="none" d="M 25 0.5 L 46.457037599830414 0.5 L 46.457037599830414 -0.5 L 25 -0.5 Z M 82.23047509983041 0.5 L 103.68751269966083 0.5 L 103.68751269966083 3.5 L 110.68751269966083 0 L 103.68751269966083 -3.5 L 103.68751269966083 -0.5 L 82.23047509983041 -0.5 Z"/><text text-anchor="middle" pointer-events="none" font-size="8px" fill="#000000" x="64.34375634983041" y="3" transform="rotate(180 64.34375634983041 0)" font-family="sans-serif">WROTE</text></g><g class="relationship" transform="translate(158.52205054138852 220.97525654103669) rotate(241.9242733287258)"><path class="outline" fill="#A5ABB6" stroke="none" d="M 25 0.5 L 41.60330199055326 0.5 L 41.60330199055326 -0.5 L 25 -0.5 Z M 87.16580199055326 0.5 L 103.76910398110653 0.5 L 103.76910398110653 3.5 L 110.76910398110653 0 L 103.76910398110653 -3.5 L 103.76910398110653 -0.5 L 87.16580199055326 -0.5 Z"/><text text-anchor="middle" pointer-events="none" font-size="8px" fill="#000000" x="64.38455199055326" y="3" transform="rotate(180 64.38455199055326 0)" font-family="sans-serif">ACTED_IN</text></g><g class="relationship" transform="translate(205.2171771083736 183.3184352469669) rotate(216.60068221826816)"><path class="outline" fill="#4C8EDA" stroke="none" d="M 25 0.5 L 47.49208912252921 0.5 L 47.49208912252921 -0.5 L 25 -0.5 Z M 83.26552662252921 0.5 L 105.75761574505842 0.5 L 105.75761574505842 3.5 L 112.75761574505842 0 L 105.75761574505842 -3.5 L 105.75761574505842 -0.5 L 83.26552662252921 -0.5 Z"/><text text-anchor="middle" pointer-events="none" font-size="8px" fill="#000000" x="65.37880787252921" y="3" transform="rotate(180 65.37880787252921 0)" font-family="sans-serif">WROTE</text></g><g class="relationship" transform="translate(223.8780302415061 67.72195413335281) rotate(525.4861796109271)"><path class="outline" fill="#A5ABB6" stroke="none" d="M 25 0.5 L 40.47621464107844 0.5 L 40.47621464107844 -0.5 L 25 -0.5 Z M 86.03871464107844 0.5 L 101.51492928215688 0.5 L 101.51492928215688 3.5 L 108.51492928215688 0 L 101.51492928215688 -3.5 L 101.51492928215688 -0.5 L 86.03871464107844 -0.5 Z"/><text text-anchor="middle" pointer-events="none" font-size="8px" fill="#000000" x="63.25746464107844" y="3" transform="rotate(180 63.25746464107844 0)" font-family="sans-serif">ACTED_IN</text></g><g class="relationship" transform="translate(228.35211253283893 127.53046873831848) rotate(191.1459702800288)"><path class="outline" fill="#A5ABB6" stroke="none" d="M 25 0.5 L 41.86828393871099 0.5 L 41.86828393871099 -0.5 L 25 -0.5 Z M 87.43078393871099 0.5 L 104.29906787742198 0.5 L 104.29906787742198 3.5 L 111.29906787742198 0 L 104.29906787742198 -3.5 L 104.29906787742198 -0.5 L 87.43078393871099 -0.5 Z"/><text text-anchor="middle" pointer-events="none" font-size="8px" fill="#000000" x="64.64953393871099" y="3" transform="rotate(180 64.64953393871099 0)" font-family="sans-serif">ACTED_IN</text></g><g class="relationship" transform="translate(153.00682291887586 -20.994794318003056) rotate(475.5409638757387)"><path class="outline" fill="#A5ABB6" stroke="none" d="M 25 0.5 L 41.423767745350034 0.5 L 41.423767745350034 -0.5 L 25 -0.5 Z M 86.98626774535003 0.5 L 103.41003549070007 0.5 L 103.41003549070007 3.5 L 110.41003549070007 0 L 103.41003549070007 -3.5 L 103.41003549070007 -0.5 L 86.98626774535003 -0.5 Z"/><text text-anchor="middle" pointer-events="none" font-size="8px" fill="#000000" x="64.20501774535003" y="3" transform="rotate(180 64.20501774535003 0)" font-family="sans-serif">ACTED_IN</text></g><g class="relationship" transform="translate(203.5241459090014 11.300550106368096) rotate(500.46504395742545)"><path class="outline" fill="#4C8EDA" stroke="none" d="M 25 0.5 L 49.214342322538656 0.5 L 49.214342322538656 -0.5 L 25 -0.5 Z M 84.98777982253866 0.5 L 109.20212214507731 0.5 L 109.20212214507731 3.5 L 116.20212214507731 0 L 109.20212214507731 -3.5 L 109.20212214507731 -0.5 L 84.98777982253866 -0.5 Z"/><text text-anchor="middle" pointer-events="none" font-size="8px" fill="#000000" x="67.10106107253866" y="3" transform="rotate(180 67.10106107253866 0)" font-family="sans-serif">WROTE</text></g><g class="relationship" transform="translate(94.8190728572147 -35.35202476713937) rotate(450.0818886427853)"><path class="outline" fill="#A5ABB6" stroke="none" d="M 25 0.5 L 41.9861327026541 0.5 L 41.9861327026541 -0.5 L 25 -0.5 Z M 87.5486327026541 0.5 L 104.5347654053082 0.5 L 104.5347654053082 3.5 L 111.5347654053082 0 L 104.5347654053082 -3.5 L 104.5347654053082 -0.5 L 87.5486327026541 -0.5 Z"/><text text-anchor="middle" pointer-events="none" font-size="8px" fill="#000000" x="64.7673827026541" y="3" transform="rotate(180 64.7673827026541 0)" font-family="sans-serif">ACTED_IN</text></g><g class="relationship" transform="translate(36.46714778860991 -21.4114422128814) rotate(424.62103478945255)"><path class="outline" fill="#A5ABB6" stroke="none" d="M 25 0.5 L 41.56326201099249 0.5 L 41.56326201099249 -0.5 L 25 -0.5 Z M 87.12576201099249 0.5 L 103.68902402198498 0.5 L 103.68902402198498 3.5 L 110.68902402198498 0 L 103.68902402198498 -3.5 L 103.68902402198498 -0.5 L 87.12576201099249 -0.5 Z"/><text text-anchor="middle" pointer-events="none" font-size="8px" fill="#000000" x="64.34451201099249" y="3" font-family="sans-serif">ACTED_IN</text></g><g class="relationship" transform="translate(-11.405224836555599 14.711835776907929) rotate(399.1985375992939)"><path class="outline" fill="#A5ABB6" stroke="none" d="M 25 0.5 L 41.46407237879485 0.5 L 41.46407237879485 -0.5 L 25 -0.5 Z M 88.35469737879485 0.5 L 104.8187697575897 0.5 L 104.8187697575897 3.5 L 111.8187697575897 0 L 104.8187697575897 -3.5 L 104.8187697575897 -0.5 L 88.35469737879485 -0.5 Z"/><text text-anchor="middle" pointer-events="none" font-size="8px" fill="#000000" x="64.90938487879485" y="3" font-family="sans-serif">DIRECTED</text></g><g class="relationship" transform="translate(-35.48844266214476 134.8843481104245) rotate(345.47837465862926)"><path class="outline" fill="#A5ABB6" stroke="none" d="M 25 0.5 L 40.921871693309384 0.5 L 40.921871693309384 -0.5 L 25 -0.5 Z M 86.48437169330938 0.5 L 102.40624338661877 0.5 L 102.40624338661877 3.5 L 109.40624338661877 0 L 102.40624338661877 -3.5 L 102.40624338661877 -0.5 L 86.48437169330938 -0.5 Z"/><text text-anchor="middle" pointer-events="none" font-size="8px" fill="#000000" x="63.703121693309384" y="3" font-family="sans-serif">ACTED_IN</text></g><g class="relationship" transform="translate(-10.643450050768772 191.36592092855577) rotate(319.41309978625884)"><path class="outline" fill="#A5ABB6" stroke="none" d="M 25 0.5 L 43.02649355684528 0.5 L 43.02649355684528 -0.5 L 25 -0.5 Z M 88.58899355684528 0.5 L 106.61548711369056 0.5 L 106.61548711369056 3.5 L 113.61548711369056 0 L 106.61548711369056 -3.5 L 106.61548711369056 -0.5 L 88.58899355684528 -0.5 Z"/><text text-anchor="middle" pointer-events="none" font-size="8px" fill="#000000" x="65.80774355684528" y="3" font-family="sans-serif">ACTED_IN</text></g><g class="relationship" transform="translate(-37.668538569937034 72.32188612600561) rotate(372.30673541215526)"><path class="outline" fill="#A5ABB6" stroke="none" d="M 25 0.5 L 41.4207424503052 0.5 L 41.4207424503052 -0.5 L 25 -0.5 Z M 86.9832424503052 0.5 L 103.4039849006104 0.5 L 103.4039849006104 3.5 L 110.4039849006104 0 L 103.4039849006104 -3.5 L 103.4039849006104 -0.5 L 86.9832424503052 -0.5 Z"/><text text-anchor="middle" pointer-events="none" font-size="8px" fill="#000000" x="64.2019924503052" y="3" font-family="sans-serif">ACTED_IN</text></g><g class="relationship" transform="translate(41.512290795798876 226.61151011520477) rotate(292.94975265802293)"><path class="outline" fill="#4C8EDA" stroke="none" d="M 25 0.5 L 46.7184532633691 0.5 L 46.7184532633691 -0.5 L 25 -0.5 Z M 82.4918907633691 0.5 L 104.2103440267382 0.5 L 104.2103440267382 3.5 L 111.2103440267382 0 L 104.2103440267382 -3.5 L 104.2103440267382 -0.5 L 82.4918907633691 -0.5 Z"/><text text-anchor="middle" pointer-events="none" font-size="8px" fill="#000000" x="64.6051720133691" y="3" font-family="sans-serif">WROTE</text></g></g><g class="layer nodes"><g class="node" transform="translate(100.6310584714832,236.73707568611715)"><circle class="outline" cx="0" cy="0" r="25" fill="#F79767" stroke="#f36924" stroke-width="2px"/><text text-anchor="middle" pointer-events="none" font-family="sans-serif" dy="1.5625" font-size="25" fill="#FFFFFF"/><text text-anchor="middle" pointer-events="none" font-family="sans-serif" dy="1.5625" font-size="25" fill="#FFFFFF"/><text text-anchor="middle" pointer-events="none" y="0" font-size="10px" fill="#FFFFFF" font-family="sans-serif"> Joe</text><text text-anchor="middle" pointer-events="none" y="10" font-size="10px" fill="#FFFFFF" font-family="sans-serif"> Simon</text></g><g class="node" transform="translate(94.62393382741807,101.18260118921502)"><circle class="outline" cx="0" cy="0" r="25" fill="#57C7E3" stroke="#23b3d7" stroke-width="2px"/><text text-anchor="middle" pointer-events="none" font-family="sans-serif" dy="1.5625" font-size="25" fill="#FFFFFF"/><text text-anchor="middle" pointer-events="none" font-family="sans-serif" dy="1.5625" font-size="25" fill="#FFFFFF"/><text text-anchor="middle" pointer-events="none" y="0" font-size="10px" fill="#FFFFFF" font-family="sans-serif"> Captain</text><text text-anchor="middle" pointer-events="none" y="10" font-size="10px" fill="#FFFFFF" font-family="sans-serif"> Americ…</text></g><g class="node" transform="translate(158.52205054138852,220.97525654103669)"><circle class="outline" cx="0" cy="0" r="25" fill="#F79767" stroke="#f36924" stroke-width="2px"/><text text-anchor="middle" pointer-events="none" font-family="sans-serif" dy="1.5625" font-size="25" fill="#FFFFFF"/><text text-anchor="middle" pointer-events="none" y="5" font-size="10px" fill="#FFFFFF" font-family="sans-serif"> Sebastian</text></g><g class="node" transform="translate(205.2171771083736,183.3184352469669)"><circle class="outline" cx="0" cy="0" r="25" fill="#F79767" stroke="#f36924" stroke-width="2px"/><text text-anchor="middle" pointer-events="none" font-family="sans-serif" dy="1.5625" font-size="25" fill="#FFFFFF"/><text text-anchor="middle" pointer-events="none" font-family="sans-serif" dy="1.5625" font-size="25" fill="#FFFFFF"/><text text-anchor="middle" pointer-events="none" y="0" font-size="10px" fill="#FFFFFF" font-family="sans-serif"> Stephen</text><text text-anchor="middle" pointer-events="none" y="10" font-size="10px" fill="#FFFFFF" font-family="sans-serif"> McFeely</text></g><g class="node" transform="translate(223.8780302415061,67.72195413335281)"><circle class="outline" cx="0" cy="0" r="25" fill="#F79767" stroke="#f36924" stroke-width="2px"/><text text-anchor="middle" pointer-events="none" font-family="sans-serif" dy="1.5625" font-size="25" fill="#FFFFFF"/><text text-anchor="middle" pointer-events="none" font-family="sans-serif" dy="1.5625" font-size="25" fill="#FFFFFF"/><text text-anchor="middle" pointer-events="none" y="0" font-size="10px" fill="#FFFFFF" font-family="sans-serif"> Richard</text><text text-anchor="middle" pointer-events="none" y="10" font-size="10px" fill="#FFFFFF" font-family="sans-serif"> Armitage</text></g><g class="node" transform="translate(228.35211253283893,127.53046873831848)"><circle class="outline" cx="0" cy="0" r="25" fill="#F79767" stroke="#f36924" stroke-width="2px"/><text text-anchor="middle" pointer-events="none" font-family="sans-serif" dy="1.5625" font-size="25" fill="#FFFFFF"/><text text-anchor="middle" pointer-events="none" font-family="sans-serif" dy="1.5625" font-size="25" fill="#FFFFFF"/><text text-anchor="middle" pointer-events="none" y="0" font-size="10px" fill="#FFFFFF" font-family="sans-serif"> Hayley</text><text text-anchor="middle" pointer-events="none" y="10" font-size="10px" fill="#FFFFFF" font-family="sans-serif"> Atwell</text></g><g class="node" transform="translate(153.00682291887586,-20.994794318003056)"><circle class="outline" cx="0" cy="0" r="25" fill="#F79767" stroke="#f36924" stroke-width="2px"/><text text-anchor="middle" pointer-events="none" font-family="sans-serif" dy="1.5625" font-size="25" fill="#FFFFFF"/><text text-anchor="middle" pointer-events="none" font-family="sans-serif" dy="1.5625" font-size="25" fill="#FFFFFF"/><text text-anchor="middle" pointer-events="none" y="0" font-size="10px" fill="#FFFFFF" font-family="sans-serif"> Chris</text><text text-anchor="middle" pointer-events="none" y="10" font-size="10px" fill="#FFFFFF" font-family="sans-serif"> Evans</text></g><g class="node" transform="translate(203.5241459090014,11.300550106368096)"><circle class="outline" cx="0" cy="0" r="25" fill="#F79767" stroke="#f36924" stroke-width="2px"/><text text-anchor="middle" pointer-events="none" font-family="sans-serif" dy="1.5625" font-size="25" fill="#FFFFFF"/><text text-anchor="middle" pointer-events="none" y="5" font-size="10px" fill="#FFFFFF" font-family="sans-serif"> Christop…</text></g><g class="node" transform="translate(94.8190728572147,-35.35202476713937)"><circle class="outline" cx="0" cy="0" r="25" fill="#F79767" stroke="#f36924" stroke-width="2px"/><text text-anchor="middle" pointer-events="none" font-family="sans-serif" dy="1.5625" font-size="25" fill="#FFFFFF"/><text text-anchor="middle" pointer-events="none" font-family="sans-serif" dy="1.5625" font-size="25" fill="#FFFFFF"/><text text-anchor="middle" pointer-events="none" y="0" font-size="10px" fill="#FFFFFF" font-family="sans-serif"> Hugo</text><text text-anchor="middle" pointer-events="none" y="10" font-size="10px" fill="#FFFFFF" font-family="sans-serif"> Weaving</text></g><g class="node" transform="translate(36.46714778860991,-21.4114422128814)"><circle class="outline" cx="0" cy="0" r="25" fill="#F79767" stroke="#f36924" stroke-width="2px"/><text text-anchor="middle" pointer-events="none" font-family="sans-serif" dy="1.5625" font-size="25" fill="#FFFFFF"/><text text-anchor="middle" pointer-events="none" font-family="sans-serif" dy="1.5625" font-size="25" fill="#FFFFFF"/><text text-anchor="middle" pointer-events="none" y="0" font-size="10px" fill="#FFFFFF" font-family="sans-serif"> Dominic</text><text text-anchor="middle" pointer-events="none" y="10" font-size="10px" fill="#FFFFFF" font-family="sans-serif"> Cooper</text></g><g class="node" transform="translate(-11.405224836555599,14.711835776907929)"><circle class="outline" cx="0" cy="0" r="25" fill="#F79767" stroke="#f36924" stroke-width="2px"/><text text-anchor="middle" pointer-events="none" font-family="sans-serif" dy="1.5625" font-size="25" fill="#FFFFFF"/><text text-anchor="middle" pointer-events="none" font-family="sans-serif" dy="1.5625" font-size="25" fill="#FFFFFF"/><text text-anchor="middle" pointer-events="none" y="0" font-size="10px" fill="#FFFFFF" font-family="sans-serif"> Joe</text><text text-anchor="middle" pointer-events="none" y="10" font-size="10px" fill="#FFFFFF" font-family="sans-serif"> Johnston</text></g><g class="node" transform="translate(-35.48844266214476,134.8843481104245)"><circle class="outline" cx="0" cy="0" r="25" fill="#F79767" stroke="#f36924" stroke-width="2px"/><text text-anchor="middle" pointer-events="none" font-family="sans-serif" dy="1.5625" font-size="25" fill="#FFFFFF"/><text text-anchor="middle" pointer-events="none" font-family="sans-serif" dy="1.5625" font-size="25" fill="#FFFFFF"/><text text-anchor="middle" pointer-events="none" font-family="sans-serif" dy="1.5625" font-size="25" fill="#FFFFFF"/><text text-anchor="middle" pointer-events="none" y="-5" font-size="10px" fill="#FFFFFF" font-family="sans-serif"> Samuel</text><text text-anchor="middle" pointer-events="none" y="5" font-size="10px" fill="#FFFFFF" font-family="sans-serif"> L.</text><text text-anchor="middle" pointer-events="none" y="15" font-size="10px" fill="#FFFFFF" font-family="sans-serif"> Jackson</text></g><g class="node" transform="translate(-10.643450050768772,191.36592092855577)"><circle class="outline" cx="0" cy="0" r="25" fill="#F79767" stroke="#f36924" stroke-width="2px"/><text text-anchor="middle" pointer-events="none" font-family="sans-serif" dy="1.5625" font-size="25" fill="#FFFFFF"/><text text-anchor="middle" pointer-events="none" font-family="sans-serif" dy="1.5625" font-size="25" fill="#FFFFFF"/><text text-anchor="middle" pointer-events="none" y="0" font-size="10px" fill="#FFFFFF" font-family="sans-serif"> Tommy</text><text text-anchor="middle" pointer-events="none" y="10" font-size="10px" fill="#FFFFFF" font-family="sans-serif"> Lee Jon…</text></g><g class="node" transform="translate(-37.668538569937034,72.32188612600561)"><circle class="outline" cx="0" cy="0" r="25" fill="#F79767" stroke="#f36924" stroke-width="2px"/><text text-anchor="middle" pointer-events="none" font-family="sans-serif" dy="1.5625" font-size="25" fill="#FFFFFF"/><text text-anchor="middle" pointer-events="none" font-family="sans-serif" dy="1.5625" font-size="25" fill="#FFFFFF"/><text text-anchor="middle" pointer-events="none" y="0" font-size="10px" fill="#FFFFFF" font-family="sans-serif"> Stanley</text><text text-anchor="middle" pointer-events="none" y="10" font-size="10px" fill="#FFFFFF" font-family="sans-serif"> Tucci</text></g><g class="node" transform="translate(41.512290795798876,226.61151011520477)"><circle class="outline" cx="0" cy="0" r="25" fill="#F79767" stroke="#f36924" stroke-width="2px"/><text text-anchor="middle" pointer-events="none" font-family="sans-serif" dy="1.5625" font-size="25" fill="#FFFFFF"/><text text-anchor="middle" pointer-events="none" y="5" font-size="10px" fill="#FFFFFF" font-family="sans-serif"> Jack Kirby</text></g></g></svg>