<svg xmlns="http://www.w3.org/2000/svg" width="238.62091064453125" height="228.7798614501953" viewBox="-25.64299774169922 -15.2556734085083 238.62091064453125 228.7798614501953"><title>Neo4j Graph Visualization</title><desc>Created using Neo4j (http://www.neo4j.com/)</desc><g class="layer relationships"><g class="relationship" transform="translate(167.54279834910062 184.52417868227707) rotate(278.93930753929754)"><path class="outline" fill="#A5ABB6" stroke="none" d="M 21.40063509461097,12.933012701892217 L 21.90063509461097,12.06698729810778 A 58.19417272091788 58.19417272091788 0 0 0 39.66426859691844,18.74925187424563 L 39.469516230345526,19.730104317640787 A 59.19417272091788 59.19417272091788 0 0 1 21.40063509461097,12.933012701892217 Z M 58.87260861444535,20.337372519814423 L 58.73957377676794,19.34626115777474 A 58.19417272091788 58.19417272091788 0 0 0 76.88630817481963,13.787901169758921 L 75.55171131523866,11.101109175131011 L 83.37792230554825,11.121640496507997 L 78.66577065426091,17.37029049592947 L 77.33117379467994,14.68349850130156 A 59.19417272091788 59.19417272091788 0 0 1 58.87260861444535,20.337372519814423"/><text text-anchor="middle" pointer-events="none" font-size="8px" fill="#000000" x="49.161639862906306" y="23.334802745178322" font-family="sans-serif">trek</text></g><g class="relationship" transform="translate(183.9778682504815 80.04103289160848) rotate(219.01168220246086)"><path class="outline" fill="#A5ABB6" stroke="none" d="M 25 0.5 L 39.49202704377223 0.5 L 39.49202704377223 -0.5 L 25 -0.5 Z M 58.82796454377223 0.5 L 73.31999158754446 0.5 L 73.31999158754446 3.5 L 80.31999158754446 0 L 73.31999158754446 -3.5 L 73.31999158754446 -0.5 L 58.82796454377223 -0.5 Z"/><text text-anchor="middle" pointer-events="none" font-size="8px" fill="#000000" x="49.15999579377223" y="3" transform="rotate(180 49.15999579377223 0)" font-family="sans-serif">trek</text></g><g class="relationship" transform="translate(102.1423778537029 13.744327547231123) rotate(519.1136089082094)"><path class="outline" fill="#A5ABB6" stroke="none" d="M 25 0.5 L 39.698626632206484 0.5 L 39.698626632206484 -0.5 L 25 -0.5 Z M 59.034564132206484 0.5 L 73.73319076441297 0.5 L 73.73319076441297 3.5 L 80.73319076441297 0 L 73.73319076441297 -3.5 L 73.73319076441297 -0.5 L 59.034564132206484 -0.5 Z"/><text text-anchor="middle" pointer-events="none" font-size="8px" fill="#000000" x="49.366595382206484" y="3" transform="rotate(180 49.366595382206484 0)" font-family="sans-serif">trek</text></g><g class="relationship" transform="translate(167.54279834910062 184.52417868227707) rotate(278.93930753929754)"><path class="outline" fill="#A5ABB6" stroke="none" d="M 25 0.5 L 38.37806842205707 0.5 L 38.37806842205707 -0.5 L 25 -0.5 Z M 60.38978717205707 0.5 L 73.76785559411414 0.5 L 73.76785559411414 3.5 L 80.76785559411414 0 L 73.76785559411414 -3.5 L 73.76785559411414 -0.5 L 60.38978717205707 -0.5 Z"/><text text-anchor="middle" pointer-events="none" font-size="8px" fill="#000000" x="49.38392779705707" y="3" font-family="sans-serif">road</text></g><g class="relationship" transform="translate(167.54279834910062 184.52417868227707) rotate(278.93930753929754)"><path class="outline" fill="#A5ABB6" stroke="none" d="M 21.40063509461097,-12.933012701892217 L 21.90063509461097,-12.06698729810778 A 58.19417272091788 58.19417272091788 0 0 1 22.69856249241472,-12.519324304454827 L 22.212273958021946,-13.393122600011722 A 59.19417272091788 59.19417272091788 0 0 0 21.40063509461097,-12.933012701892217 Z M 76.49235103809421,-15.091953083820236 L 76.06165611642982,-14.189455502409345 A 58.19417272091788 58.19417272091788 0 0 1 76.88630817481963,-13.787901169758921 L 75.55171131523866,-11.101109175131011 L 83.37792230554825,-11.121640496507997 L 78.66577065426091,-17.37029049592947 L 77.33117379467994,-14.68349850130156 A 59.19417272091788 59.19417272091788 0 0 0 76.49235103809421,-15.091953083820236"/><text text-anchor="middle" pointer-events="none" font-size="8px" fill="#000000" x="49.161639862906306" y="-17.334802745178322" font-family="sans-serif">PublicTrans…</text></g></g><g class="layer nodes"><g class="node" transform="translate(167.54279834910062,184.52417868227707)"><circle class="outline" cx="0" cy="0" r="25" fill="#D9C8AE" stroke="#c0a378" stroke-width="2px"/><text text-anchor="middle" pointer-events="none" font-family="sans-serif" dy="1.5625" font-size="25" fill="#604A0E"/><text text-anchor="middle" pointer-events="none" y="5" font-size="10px" fill="#604A0E" font-family="sans-serif"> Darjeeling</text></g><g class="node" transform="translate(183.9778682504815,80.04103289160848)"><circle class="outline" cx="0" cy="0" r="25" fill="#D9C8AE" stroke="#c0a378" stroke-width="2px"/><text text-anchor="middle" pointer-events="none" font-family="sans-serif" dy="1.5625" font-size="25" fill="#604A0E"/><text text-anchor="middle" pointer-events="none" y="5" font-size="10px" fill="#604A0E" font-family="sans-serif"> Rimbik</text></g><g class="node" transform="translate(102.1423778537029,13.744327547231123)"><circle class="outline" cx="0" cy="0" r="25" fill="#8DCC93" stroke="#5db665" stroke-width="2px"/><text text-anchor="middle" pointer-events="none" font-family="sans-serif" dy="1.5625" font-size="25" fill="#604A0E"/><text text-anchor="middle" pointer-events="none" y="5" font-size="10px" fill="#604A0E" font-family="sans-serif"> BhikeBh…</text></g><g class="node" transform="translate(3.357001706033878,51.43991201792595)"><circle class="outline" cx="0" cy="0" r="25" fill="#ECB5C9" stroke="#da7298" stroke-width="2px"/><text text-anchor="middle" pointer-events="none" font-family="sans-serif" dy="1.5625" font-size="25" fill="#604A0E"/><text text-anchor="middle" pointer-events="none" y="5" font-size="10px" fill="#604A0E" font-family="sans-serif"> Sandak…</text></g></g></svg>