<svg xmlns="http://www.w3.org/2000/svg" width="341.6337585449219" height="356.14398193359375" viewBox="-64.62005615234375 -69.68659973144531 341.6337585449219 356.14398193359375"><title>Neo4j Graph Visualization</title><desc>Created using Neo4j (http://www.neo4j.com/)</desc><g class="layer relationships"><g class="relationship" transform="translate(114.00343808154426 257.4573745982779) rotate(323.67101064216774)"><path class="outline" fill="#A5ABB6" stroke="none" d="M 24.018736134675446,-6.953439040707552 L 24.277555179777966,-5.987513214418485 A 108.89996608411734 108.89996608411734 0 0 1 39.82580057220005,-8.962475025055426 L 39.70975701134711,-9.95571915012468 A 109.89996608411734 109.89996608411734 0 0 0 24.018736134675446,-6.953439040707552 Z M 61.78207590108591,-10.302361582760753 L 61.69727937366399,-9.305963294455722 A 108.89996608411734 108.89996608411734 0 0 1 77.33127655806207,-6.820713891285964 L 76.64619821399297,-3.8999832185796386 L 84.26049451838836,-5.708986200575792 L 78.24471435015421,-10.715021454894398 L 77.55963600608511,-7.794290782188073 A 109.89996608411734 109.89996608411734 0 0 0 61.78207590108591,-10.302361582760753"/><text text-anchor="middle" pointer-events="none" font-size="8px" fill="#000000" x="50.745042318420666" y="-7.184700742573341" font-family="sans-serif">road</text></g><g class="relationship" transform="translate(201.49464181356234 193.1205173815797) rotate(294.2917179390096)"><path class="outline" fill="#A5ABB6" stroke="none" d="M 21.40063509461097,-12.933012701892217 L 21.90063509461097,-12.06698729810778 A 65.75003681491111 65.75003681491111 0 0 1 42.00361015895908,-19.62339941362781 L 41.80935865794378,-20.6043511730703 A 66.75003681491111 66.75003681491111 0 0 0 21.40063509461097,-12.933012701892217 Z M 63.87581439824644,-21.252591227737312 L 63.73948247499352,-20.261928012157895 A 65.75003681491111 65.75003681491111 0 0 1 84.25137243332607,-13.898647346130666 L 82.90647346326611,-11.216997339076865 L 90.7327056114616,-11.207491417166384 L 86.04457106007268,-17.474180688869065 L 84.69967209001273,-14.792530681815265 A 66.75003681491111 66.75003681491111 0 0 0 63.87581439824644,-21.252591227737312"/><text text-anchor="middle" pointer-events="none" font-size="8px" fill="#000000" x="52.8302840693698" y="-18.347253808797802" font-family="sans-serif">road</text></g><g class="relationship" transform="translate(248.01370074000363 90.05250179142828) rotate(206.23989033044052)"><path class="outline" fill="#A5ABB6" stroke="none" d="M 21.40063509461097,12.933012701892217 L 21.90063509461097,12.06698729810778 A 65.26675843787821 65.26675843787821 0 0 0 41.77028263147251,19.550854497855738 L 41.574720112549095,20.53154573427642 A 66.26675843787821 66.26675843787821 0 0 1 21.40063509461097,12.933012701892217 Z M 63.6408152186151,21.18233480471926 L 63.50338883591974,20.19182282127875 A 65.26675843787821 65.26675843787821 0 0 0 83.77955586495487,13.89196471865142 L 82.43527852141676,11.210003044120981 L 90.26151266278225,11.202311196150907 L 85.571925656339,17.467913618025342 L 84.2276483128009,14.785951943494902 A 66.26675843787821 66.26675843787821 0 0 1 63.6408152186151,21.18233480471926"/><text text-anchor="middle" pointer-events="none" font-size="8px" fill="#000000" x="52.595217021161254" y="24.282490921791947" transform="rotate(180 52.595217021161254 21.282490921791947)" font-family="sans-serif">road</text></g><g class="relationship" transform="translate(147.00700442824885 40.263666165337376) rotate(224.88691420236535)"><path class="outline" fill="#A5ABB6" stroke="none" d="M 25 0.5 L 44.185822123519976 0.5 L 44.185822123519976 -0.5 L 25 -0.5 Z M 63.521759623519976 0.5 L 82.70758174703995 0.5 L 82.70758174703995 3.5 L 89.70758174703995 0 L 82.70758174703995 -3.5 L 82.70758174703995 -0.5 L 63.521759623519976 -0.5 Z"/><text text-anchor="middle" pointer-events="none" font-size="8px" fill="#000000" x="53.853790873519976" y="3" transform="rotate(180 53.853790873519976 0)" font-family="sans-serif">trek</text></g><g class="relationship" transform="translate(114.00343808154426 257.4573745982779) rotate(323.67101064216774)"><path class="outline" fill="#A5ABB6" stroke="none" d="M 24.018736134675446,6.953439040707552 L 24.277555179777966,5.987513214418485 A 108.89996608411734 108.89996608411734 0 0 0 41.149491213009114,9.108926934744488 L 41.045602758244875,10.10351588952264 A 109.89996608411734 109.89996608411734 0 0 1 24.018736134675446,6.953439040707552 Z M 60.44224783755814,10.408137269308753 L 60.36964265205622,9.410776508581606 A 108.89996608411734 108.89996608411734 0 0 0 77.33127655806207,6.820713891285964 L 76.64619821399297,3.8999832185796386 L 84.26049451838836,5.708986200575792 L 78.24471435015421,10.715021454894398 L 77.55963600608511,7.794290782188073 A 109.89996608411734 109.89996608411734 0 0 1 60.44224783755814,10.408137269308753"/><text text-anchor="middle" pointer-events="none" font-size="8px" fill="#000000" x="50.745042318420715" y="13.184700742573341" font-family="sans-serif">trek</text></g><g class="relationship" transform="translate(201.49464181356234 193.1205173815797) rotate(294.2917179390096)"><path class="outline" fill="#A5ABB6" stroke="none" d="M 25 0.5 L 29.807472626788318 0.5 L 29.807472626788318 -0.5 L 25 -0.5 Z M 76.27231637678832 0.5 L 81.07978900357664 0.5 L 81.07978900357664 3.5 L 88.07978900357664 0 L 81.07978900357664 -3.5 L 81.07978900357664 -0.5 L 76.27231637678832 -0.5 Z"/><text text-anchor="middle" pointer-events="none" font-size="8px" fill="#000000" x="53.03989450178832" y="3" font-family="sans-serif">twowheeler</text></g><g class="relationship" transform="translate(201.49464181356234 193.1205173815797) rotate(294.2917179390096)"><path class="outline" fill="#A5ABB6" stroke="none" d="M 21.40063509461097,12.933012701892217 L 21.90063509461097,12.06698729810778 A 65.75003681491111 65.75003681491111 0 0 0 43.30862710709969,19.868156457349727 L 43.13422376148261,20.852830755296807 A 66.75003681491111 66.75003681491111 0 0 1 21.40063509461097,12.933012701892217 Z M 62.53864757645121,21.42286904792678 L 62.42234810389945,20.429654855174704 A 65.75003681491111 65.75003681491111 0 0 0 84.25137243332607,13.898647346130666 L 82.90647346326611,11.216997339076865 L 90.7327056114616,11.207491417166384 L 86.04457106007268,17.474180688869065 L 84.69967209001273,14.792530681815265 A 66.75003681491111 66.75003681491111 0 0 1 62.53864757645121,21.42286904792678"/><text text-anchor="middle" pointer-events="none" font-size="8px" fill="#000000" x="52.830284069369796" y="24.347253808797802" font-family="sans-serif">trek</text></g><g class="relationship" transform="translate(248.01370074000363 90.05250179142828) rotate(206.23989033044052)"><path class="outline" fill="#A5ABB6" stroke="none" d="M 25 0.5 L 29.57317476693462 0.5 L 29.57317476693462 -0.5 L 25 -0.5 Z M 76.03801851693461 0.5 L 80.61119328386924 0.5 L 80.61119328386924 3.5 L 87.61119328386924 0 L 80.61119328386924 -3.5 L 80.61119328386924 -0.5 L 76.03801851693461 -0.5 Z"/><text text-anchor="middle" pointer-events="none" font-size="8px" fill="#000000" x="52.80559664193462" y="3" transform="rotate(180 52.80559664193462 0)" font-family="sans-serif">twowheeler</text></g><g class="relationship" transform="translate(248.01370074000363 90.05250179142828) rotate(206.23989033044052)"><path class="outline" fill="#A5ABB6" stroke="none" d="M 21.40063509461097,-12.933012701892217 L 21.90063509461097,-12.06698729810778 A 65.26675843787821 65.26675843787821 0 0 1 43.074916309719036,-19.79724503906324 L 42.89934304274366,-20.781711406149284 A 66.26675843787821 66.26675843787821 0 0 0 21.40063509461097,-12.933012701892217 Z M 62.30375134748718,-21.354000104373284 L 62.1865019570372,-20.360897601889718 A 65.26675843787821 65.26675843787821 0 0 1 83.77955586495487,-13.89196471865142 L 82.43527852141676,-11.210003044120981 L 90.26151266278225,-11.202311196150907 L 85.571925656339,-17.467913618025342 L 84.2276483128009,-14.785951943494902 A 66.26675843787821 66.26675843787821 0 0 0 62.30375134748718,-21.354000104373284"/><text text-anchor="middle" pointer-events="none" font-size="8px" fill="#000000" x="52.59521702116124" y="-18.282490921791947" transform="rotate(180 52.59521702116124 -21.282490921791947)" font-family="sans-serif">trek</text></g><g class="relationship" transform="translate(114.00343808154426 257.4573745982779) rotate(261.67543148818896)"><path class="outline" fill="#A5ABB6" stroke="none" d="M 21.40063509461097,12.933012701892217 L 21.90063509461097,12.06698729810778 A 62.90972323249512 62.90972323249512 0 0 0 41.93620638488915,19.45020401118002 L 41.75468769844115,20.433591506763626 A 63.90972323249512 63.90972323249512 0 0 1 21.40063509461097,12.933012701892217 Z M 61.158903215437036,21.01710334596627 L 61.03680275701085,20.024585598995408 A 62.90972323249512 62.90972323249512 0 0 0 81.47981697436597,13.858616440053495 L 80.13864177194606,11.175102125499928 L 87.96487957539428,11.176460020165955 L 83.26805057759253,17.436635526124917 L 81.92687537517261,14.75312121157135 A 63.90972323249512 63.90972323249512 0 0 1 61.158903215437036,21.01710334596627"/><text text-anchor="middle" pointer-events="none" font-size="8px" fill="#000000" x="51.44953941811967" y="23.96664114414836" transform="rotate(180 51.44953941811967 20.96664114414836)" font-family="sans-serif">trek</text></g><g class="relationship" transform="translate(98.03016787691271 148.2923085541891) rotate(192.05770487344984)"><path class="outline" fill="#A5ABB6" stroke="none" d="M 24.018736134675446,-6.953439040707552 L 24.277555179777966,-5.987513214418485 A 124.10158038493095 124.10158038493095 0 0 1 31.598308452650556,-7.7131398606729675 L 31.398479415976336,-8.692970639992467 A 125.10158038493095 125.10158038493095 0 0 0 24.018736134675446,-6.953439040707552 Z M 77.77490962939154,-9.376134003646499 L 77.60402847942609,-8.390842355155314 A 124.10158038493095 124.10158038493095 0 0 1 84.97243407277927,-6.881599228160944 L 84.28166866253805,-3.962208341689197 L 91.89947370958689,-5.756378418676746 L 85.89345461976755,-10.774120410123274 L 85.20268920952634,-7.854729523651526 A 125.10158038493095 125.10158038493095 0 0 0 77.77490962939154,-9.376134003646499"/><text text-anchor="middle" pointer-events="none" font-size="8px" fill="#000000" x="54.562121982090204" y="-7.702655113392623" transform="rotate(180 54.562121982090204 -10.702655113392623)" font-family="sans-serif">twowheeler</text></g><g class="relationship" transform="translate(-15.633313135945174 124.01271712513696) rotate(259.83709323953974)"><path class="outline" fill="#A5ABB6" stroke="none" d="M 24.018736134675446,-6.953439040707552 L 24.277555179777966,-5.987513214418485 A 118.22054610891128 118.22054610891128 0 0 1 30.140599042442183,-7.39926941009486 L 29.931374116599294,-8.377136952457334 A 119.22054610891128 119.22054610891128 0 0 0 24.018736134675446,-6.953439040707552 Z M 76.28938988673634,-9.076838735622033 L 76.1097723078,-8.09310222347203 A 118.22054610891128 118.22054610891128 0 0 1 82.0127522369377,-6.8589357647831815 L 81.32410371276106,-3.939044806177136 L 88.94060589438125,-5.738737701472024 L 82.93095026917322,-10.752123709591242 L 82.24230174499658,-7.832232750985197 A 119.22054610891128 119.22054610891128 0 0 0 76.28938988673634,-9.076838735622033"/><text text-anchor="middle" pointer-events="none" font-size="8px" fill="#000000" x="53.083587043865386" y="-7.502259976043064" transform="rotate(180 53.083587043865386 -10.502259976043064)" font-family="sans-serif">twowheeler</text></g><g class="relationship" transform="translate(-35.620060253933914 12.516935189253642) rotate(332.3043814596099)"><path class="outline" fill="#A5ABB6" stroke="none" d="M 24.018736134675446,6.953439040707552 L 24.277555179777966,5.987513214418485 A 120.60754842509648 120.60754842509648 0 0 0 30.731666880854824,7.527920753779611 L 30.52636116709313,8.506618645826393 A 121.60754842509648 121.60754842509648 0 0 1 24.018736134675446,6.953439040707552 Z M 76.89222672413264,9.199519300720638 L 76.7162578693539,8.21512356619725 A 120.60754842509648 120.60754842509648 0 0 0 83.21351746228414,6.868263878118174 L 82.5239976404585,3.9485785499861272 L 90.14103653156319,5.745998515213684 L 84.13287722471833,10.761177648960903 L 83.44335740289269,7.841492320828856 A 121.60754842509648 121.60754842509648 0 0 1 76.89222672413264,9.199519300720638"/><text text-anchor="middle" pointer-events="none" font-size="8px" fill="#000000" x="53.683432628486024" y="13.58359461870684" font-family="sans-serif">twowheeler</text></g><g class="relationship" transform="translate(114.00343808154426 257.4573745982779) rotate(261.67543148818896)"><path class="outline" fill="#A5ABB6" stroke="none" d="M 25 0.5 L 25.69304630667034 0.5 L 25.69304630667034 -0.5 L 25 -0.5 Z M 77.63445255667034 0.5 L 78.32749886334068 0.5 L 78.32749886334068 3.5 L 85.32749886334068 0 L 78.32749886334068 -3.5 L 78.32749886334068 -0.5 L 77.63445255667034 -0.5 Z"/><text text-anchor="middle" pointer-events="none" font-size="8px" fill="#000000" x="51.66374943167034" y="3" transform="rotate(180 51.66374943167034 0)" font-family="sans-serif">PublicTran…</text></g><g class="relationship" transform="translate(114.00343808154426 257.4573745982779) rotate(261.67543148818896)"><path class="outline" fill="#A5ABB6" stroke="none" d="M 21.40063509461097,-12.933012701892217 L 21.90063509461097,-12.06698729810778 A 62.90972323249512 62.90972323249512 0 0 1 40.63355432330061,-19.19551493884704 L 40.43132894805072,-20.174853949407243 A 63.90972323249512 63.90972323249512 0 0 0 21.40063509461097,-12.933012701892217 Z M 62.49541787086085,-20.83835189377934 L 62.3524048722479,-19.848631083536503 A 62.90972323249512 62.90972323249512 0 0 1 81.47981697436597,-13.858616440053495 L 80.13864177194606,-11.175102125499928 L 87.96487957539428,-11.176460020165955 L 83.26805057759253,-17.436635526124917 L 81.92687537517261,-14.75312121157135 A 63.90972323249512 63.90972323249512 0 0 0 62.49541787086085,-20.83835189377934"/><text text-anchor="middle" pointer-events="none" font-size="8px" fill="#000000" x="51.44953941811965" y="-17.96664114414836" transform="rotate(180 51.44953941811965 -20.96664114414836)" font-family="sans-serif">road</text></g><g class="relationship" transform="translate(98.03016787691271 148.2923085541891) rotate(192.05770487344984)"><path class="outline" fill="#A5ABB6" stroke="none" d="M 24.018736134675446,6.953439040707552 L 24.277555179777966,5.987513214418485 A 124.10158038493095 124.10158038493095 0 0 0 44.9565154974637,9.687680290971997 L 44.86432575920437,10.683421749463946 A 125.10158038493095 125.10158038493095 0 0 1 24.018736134675446,6.953439040707552 Z M 64.25627684913624,10.969081306990219 L 64.19345694618829,9.9710564276442 A 124.10158038493095 124.10158038493095 0 0 0 84.97243407277927,6.881599228160944 L 84.28166866253805,3.962208341689197 L 91.89947370958689,5.756378418676746 L 85.89345461976755,10.774120410123274 L 85.20268920952634,7.854729523651526 A 125.10158038493095 125.10158038493095 0 0 1 64.25627684913624,10.969081306990219"/><text text-anchor="middle" pointer-events="none" font-size="8px" fill="#000000" x="54.56212198209022" y="13.702655113392623" transform="rotate(180 54.56212198209022 10.702655113392623)" font-family="sans-serif">trek</text></g><g class="relationship" transform="translate(-15.633313135945174 124.01271712513696) rotate(259.83709323953974)"><path class="outline" fill="#A5ABB6" stroke="none" d="M 24.018736134675446,6.953439040707552 L 24.277555179777966,5.987513214418485 A 118.22054610891128 118.22054610891128 0 0 0 43.48152647771417,9.465450859236213 L 43.38514934249967,10.460795748110343 A 119.22054610891128 119.22054610891128 0 0 1 24.018736134675446,6.953439040707552 Z M 62.778858304202366,10.753513469463329 L 62.71256457776869,9.755713318212813 A 118.22054610891128 118.22054610891128 0 0 0 82.0127522369377,6.8589357647831815 L 81.32410371276106,3.939044806177136 L 88.94060589438125,5.738737701472024 L 82.93095026917322,10.752123709591242 L 82.24230174499658,7.832232750985197 A 119.22054610891128 119.22054610891128 0 0 1 62.778858304202366,10.753513469463329"/><text text-anchor="middle" pointer-events="none" font-size="8px" fill="#000000" x="53.08358704386544" y="13.502259976043064" transform="rotate(180 53.08358704386544 10.502259976043064)" font-family="sans-serif">trek</text></g><g class="relationship" transform="translate(-35.620060253933914 12.516935189253642) rotate(332.3043814596099)"><path class="outline" fill="#A5ABB6" stroke="none" d="M 24.018736134675446,-6.953439040707552 L 24.277555179777966,-5.987513214418485 A 120.60754842509648 120.60754842509648 0 0 1 44.07988610015728,-9.55588073956983 L 43.985255210596925,-10.551393167790096 A 121.60754842509648 121.60754842509648 0 0 0 24.018736134675446,-6.953439040707552 Z M 63.37824147904392,-10.841205785851372 L 63.313400472989244,-9.843310178117875 A 120.60754842509648 120.60754842509648 0 0 1 83.21351746228414,-6.868263878118174 L 82.5239976404585,-3.9485785499861272 L 90.14103653156319,-5.745998515213684 L 84.13287722471833,-10.761177648960903 L 83.44335740289269,-7.841492320828856 A 121.60754842509648 121.60754842509648 0 0 0 63.37824147904392,-10.841205785851372"/><text text-anchor="middle" pointer-events="none" font-size="8px" fill="#000000" x="53.683432628485974" y="-7.58359461870684" font-family="sans-serif">trek</text></g><g class="relationship" transform="translate(98.03016787691271 148.2923085541891) rotate(294.3880658030357)"><path class="outline" fill="#A5ABB6" stroke="none" d="M 25 0.5 L 46.138266366880224 0.5 L 46.138266366880224 -0.5 L 25 -0.5 Z M 65.47420386688023 0.5 L 86.61247023376045 0.5 L 86.61247023376045 3.5 L 93.61247023376045 0 L 86.61247023376045 -3.5 L 86.61247023376045 -0.5 L 65.47420386688023 -0.5 Z"/><text text-anchor="middle" pointer-events="none" font-size="8px" fill="#000000" x="55.806235116880224" y="3" font-family="sans-serif">trek</text></g><g class="relationship" transform="translate(98.03016787691271 148.2923085541891) rotate(383.4257105079241)"><path class="outline" fill="#A5ABB6" stroke="none" d="M 25 0.5 L 43.2112509893237 0.5 L 43.2112509893237 -0.5 L 25 -0.5 Z M 62.5471884893237 0.5 L 80.7584394786474 0.5 L 80.7584394786474 3.5 L 87.7584394786474 0 L 80.7584394786474 -3.5 L 80.7584394786474 -0.5 L 62.5471884893237 -0.5 Z"/><text text-anchor="middle" pointer-events="none" font-size="8px" fill="#000000" x="52.8792197393237" y="3" font-family="sans-serif">trek</text></g></g><g class="layer nodes"><g class="node" transform="translate(114.00343808154426,257.4573745982779)"><circle class="outline" cx="0" cy="0" r="25" fill="#D9C8AE" stroke="#c0a378" stroke-width="2px"/><text text-anchor="middle" pointer-events="none" font-family="sans-serif" dy="1.5625" font-size="25" fill="#604A0E"/><text text-anchor="middle" pointer-events="none" y="5" font-size="10px" fill="#604A0E" font-family="sans-serif"> Darjeeling</text></g><g class="node" transform="translate(201.49464181356234,193.1205173815797)"><circle class="outline" cx="0" cy="0" r="25" fill="#8DCC93" stroke="#5db665" stroke-width="2px"/><text text-anchor="middle" pointer-events="none" font-family="sans-serif" dy="1.5625" font-size="25" fill="#604A0E"/><text text-anchor="middle" pointer-events="none" y="5" font-size="10px" fill="#604A0E" font-family="sans-serif"> Tumbling</text></g><g class="node" transform="translate(248.01370074000363,90.05250179142828)"><circle class="outline" cx="0" cy="0" r="25" fill="#8DCC93" stroke="#5db665" stroke-width="2px"/><text text-anchor="middle" pointer-events="none" font-family="sans-serif" dy="1.5625" font-size="25" fill="#604A0E"/><text text-anchor="middle" pointer-events="none" y="5" font-size="10px" fill="#604A0E" font-family="sans-serif"> Gairibus</text></g><g class="node" transform="translate(147.00700442824885,40.263666165337376)"><circle class="outline" cx="0" cy="0" r="25" fill="#8DCC93" stroke="#5db665" stroke-width="2px"/><text text-anchor="middle" pointer-events="none" font-family="sans-serif" dy="1.5625" font-size="25" fill="#604A0E"/><text text-anchor="middle" pointer-events="none" y="5" font-size="10px" fill="#604A0E" font-family="sans-serif"> BhikeBh…</text></g><g class="node" transform="translate(65.73656421750609,-40.68659546614802)"><circle class="outline" cx="0" cy="0" r="25" fill="#ECB5C9" stroke="#da7298" stroke-width="2px"/><text text-anchor="middle" pointer-events="none" font-family="sans-serif" dy="1.5625" font-size="25" fill="#604A0E"/><text text-anchor="middle" pointer-events="none" y="5" font-size="10px" fill="#604A0E" font-family="sans-serif"> Sandak…</text></g><g class="node" transform="translate(98.03016787691271,148.2923085541891)"><circle class="outline" cx="0" cy="0" r="25" fill="#D9C8AE" stroke="#c0a378" stroke-width="2px"/><text text-anchor="middle" pointer-events="none" font-family="sans-serif" dy="1.5625" font-size="25" fill="#604A0E"/><text text-anchor="middle" pointer-events="none" y="5" font-size="10px" fill="#604A0E" font-family="sans-serif"> Rimbik</text></g><g class="node" transform="translate(-15.633313135945174,124.01271712513696)"><circle class="outline" cx="0" cy="0" r="25" fill="#8DCC93" stroke="#5db665" stroke-width="2px"/><text text-anchor="middle" pointer-events="none" font-family="sans-serif" dy="1.5625" font-size="25" fill="#604A0E"/><text text-anchor="middle" pointer-events="none" y="5" font-size="10px" fill="#604A0E" font-family="sans-serif"> Sirikhola</text></g><g class="node" transform="translate(-35.620060253933914,12.516935189253642)"><circle class="outline" cx="0" cy="0" r="25" fill="#8DCC93" stroke="#5db665" stroke-width="2px"/><text text-anchor="middle" pointer-events="none" font-family="sans-serif" dy="1.5625" font-size="25" fill="#604A0E"/><text text-anchor="middle" pointer-events="none" y="5" font-size="10px" fill="#604A0E" font-family="sans-serif"> Gurdum</text></g></g></svg>