<svg xmlns="http://www.w3.org/2000/svg" width="289.3414306640625" height="268.51947021484375" viewBox="-48.93190002441406 -30.83604621887207 289.3414306640625 268.51947021484375"><title>Neo4j Graph Visualization</title><desc>Created using Neo4j (http://www.neo4j.com/)</desc><g class="layer relationships"><g class="relationship" transform="translate(211.40954336733063 116.11371221281928) rotate(481.3822467367849)"><path class="outline" fill="#A5ABB6" stroke="none" d="M 25 0.5 L 33.49333642212987 0.5 L 33.49333642212987 -0.5 L 25 -0.5 Z M 67.93864892212987 0.5 L 76.43198534425974 0.5 L 76.43198534425974 3.5 L 83.43198534425974 0 L 76.43198534425974 -3.5 L 76.43198534425974 -0.5 L 67.93864892212987 -0.5 Z"/><text text-anchor="middle" pointer-events="none" font-size="8px" fill="#000000" x="50.71599267212987" y="3" transform="rotate(180 50.71599267212987 0)" font-family="sans-serif">ORIGIN</text></g><g class="relationship" transform="translate(211.40954336733063 116.11371221281928) rotate(239.61121631099275)"><path class="outline" fill="#A5ABB6" stroke="none" d="M 25 0.5 L 26.046381506301948 0.5 L 26.046381506301948 -0.5 L 25 -0.5 Z M 74.71825650630194 0.5 L 75.7646380126039 0.5 L 75.7646380126039 3.5 L 82.7646380126039 0 L 75.7646380126039 -3.5 L 75.7646380126039 -0.5 L 74.71825650630194 -0.5 Z"/><text text-anchor="middle" pointer-events="none" font-size="8px" fill="#000000" x="50.38231900630195" y="3" transform="rotate(180 50.38231900630195 0)" font-family="sans-serif">DESTINA…</text></g><g class="relationship" transform="translate(52.09672925951326 -1.8360468843321591) rotate(373.41246568299266)"><path class="outline" fill="#A5ABB6" stroke="none" d="M 25 0.5 L 33.145815657484334 0.5 L 33.145815657484334 -0.5 L 25 -0.5 Z M 67.59112815748433 0.5 L 75.73694381496867 0.5 L 75.73694381496867 3.5 L 82.73694381496867 0 L 75.73694381496867 -3.5 L 75.73694381496867 -0.5 L 67.59112815748433 -0.5 Z"/><text text-anchor="middle" pointer-events="none" font-size="8px" fill="#000000" x="50.368471907484334" y="3" font-family="sans-serif">ORIGIN</text></g><g class="relationship" transform="translate(52.09672925951326 -1.8360468843321591) rotate(491.6449787385362)"><path class="outline" fill="#A5ABB6" stroke="none" d="M 25 0.5 L 26.360613014986825 0.5 L 26.360613014986825 -0.5 L 25 -0.5 Z M 75.03248801498682 0.5 L 76.39310102997365 0.5 L 76.39310102997365 3.5 L 83.39310102997365 0 L 76.39310102997365 -3.5 L 76.39310102997365 -0.5 L 75.03248801498682 -0.5 Z"/><text text-anchor="middle" pointer-events="none" font-size="8px" fill="#000000" x="50.696550514986825" y="3" transform="rotate(180 50.696550514986825 0)" font-family="sans-serif">DESTINA…</text></g></g><g class="layer nodes"><g class="node" transform="translate(154.94411488442725,208.68342017357654)"><circle class="outline" cx="0" cy="0" r="25" fill="#FFC454" stroke="#d7a013" stroke-width="2px"/><text text-anchor="middle" pointer-events="none" font-family="sans-serif" dy="1.5625" font-size="25" fill="#604A0E"/><text text-anchor="middle" pointer-events="none" y="5" font-size="10px" fill="#604A0E" font-family="sans-serif"> MSN</text></g><g class="node" transform="translate(211.40954336733063,116.11371221281928)"><circle class="outline" cx="0" cy="0" r="25" fill="#4C8EDA" stroke="#2870c2" stroke-width="2px"/><text text-anchor="middle" pointer-events="none" font-family="sans-serif" dy="1.5625" font-size="25" fill="#FFFFFF"/><text text-anchor="middle" pointer-events="none" y="5" font-size="10px" fill="#FFFFFF" font-family="sans-serif"> 11/30/20…</text></g><g class="node" transform="translate(156.8951947372952,23.154565274873956)"><circle class="outline" cx="0" cy="0" r="25" fill="#FFC454" stroke="#d7a013" stroke-width="2px"/><text text-anchor="middle" pointer-events="none" font-family="sans-serif" dy="1.5625" font-size="25" fill="#604A0E"/><text text-anchor="middle" pointer-events="none" y="5" font-size="10px" fill="#604A0E" font-family="sans-serif"> ORD</text></g><g class="node" transform="translate(52.09672925951326,-1.8360468843321591)"><circle class="outline" cx="0" cy="0" r="25" fill="#4C8EDA" stroke="#2870c2" stroke-width="2px"/><text text-anchor="middle" pointer-events="none" font-family="sans-serif" dy="1.5625" font-size="25" fill="#FFFFFF"/><text text-anchor="middle" pointer-events="none" y="5" font-size="10px" fill="#FFFFFF" font-family="sans-serif"> 11/17/20…</text></g><g class="node" transform="translate(-19.931900879500706,79.16358762836921)"><circle class="outline" cx="0" cy="0" r="25" fill="#FFC454" stroke="#d7a013" stroke-width="2px"/><text text-anchor="middle" pointer-events="none" font-family="sans-serif" dy="1.5625" font-size="25" fill="#604A0E"/><text text-anchor="middle" pointer-events="none" y="5" font-size="10px" fill="#604A0E" font-family="sans-serif"> GRR</text></g></g></svg>